<?xml version="1.0" encoding="UTF-8"?>
<svg width="60px" height="60px" viewBox="0 0 891 957" version="1.1" xmlns="http://www.w3.org/2000/svg" xmlns:xlink="http://www.w3.org/1999/xlink">
    <!-- Generator: Sketch 53 (72520) - https://sketchapp.com -->
    <title>Muik Logo</title>
    <desc>Created with Sketch.</desc>
    <defs>
        <linearGradient x1="0.000696351316%" y1="49.9969847%" x2="100.00012%" y2="49.9969847%" id="linearGradient-1">
            <stop stop-color="#D4145A" offset="0%"></stop>
            <stop stop-color="#ED1E79" offset="100%"></stop>
        </linearGradient>
        <linearGradient x1="0.000757120108%" y1="50.0015297%" x2="100.007948%" y2="50.0015297%" id="linearGradient-2">
            <stop stop-color="#D4145A" offset="0%"></stop>
            <stop stop-color="#ED1E79" offset="100%"></stop>
        </linearGradient>
        <linearGradient x1="-0.0306904727%" y1="50.0181866%" x2="99.9820172%" y2="50.0181866%" id="linearGradient-3">
            <stop stop-color="#D4145A" offset="0%"></stop>
            <stop stop-color="#ED1E79" offset="100%"></stop>
        </linearGradient>
        <linearGradient x1="-0.00601843695%" y1="50.0181884%" x2="100.00051%" y2="50.0181884%" id="linearGradient-4">
            <stop stop-color="#D4145A" offset="0%"></stop>
            <stop stop-color="#ED1E79" offset="100%"></stop>
        </linearGradient>
        <linearGradient x1="-0.00699025523%" y1="49.9969289%" x2="100.004451%" y2="49.9969289%" id="linearGradient-5">
            <stop stop-color="#D4145A" offset="0%"></stop>
            <stop stop-color="#ED1E79" offset="100%"></stop>
        </linearGradient>
    </defs>
    <g id="Page-1" stroke="none" stroke-width="1" fill="none" fill-rule="evenodd">
        <g id="MÜİK-LOGO-pembe-(1)" transform="translate(-2258.000000, -3261.000000)" fill-rule="nonzero">
            <g id="Muik-Logo" transform="translate(2258.715529, 3261.650000)">
                <path d="M641.904471,492.12 L606.534471,717.87 C605.794471,722.61 600.534471,726.17 594.244471,726.17 L571.914471,726.17 C564.394471,726.17 558.604471,731.26 559.694471,736.93 L592.274471,945.04 C593.344471,950.71 587.574471,955.79 580.034471,955.79 L488.904471,955.79 C482.694471,955.79 477.464471,952.3 476.644471,947.63 L445.744471,734.34 C444.924471,729.67 439.744471,726.17 433.484471,726.17 C427.224471,726.17 421.954471,729.74 421.214471,734.46 L386.904471,947.46 C386.154471,952.2 380.904471,955.76 374.624471,955.76 L283.284471,955.76 C275.894471,955.76 270.134471,950.83 271.014471,945.23 L350.344471,445.74 C350.33482,445.626872 350.33482,445.513128 350.344471,445.4 L370.224471,319.5 L402.774471,113.44 C404.864471,100.2 391.294471,88.55 373.774471,88.55 C366.899944,88.4609103 360.152976,90.4094931 354.384471,94.15 C349.194471,97.64 345.654471,102.55 344.764471,108.15 L290.664471,450.74 C288.904471,461.91 276.434471,470.32 261.664471,470.32 L204.314471,470.32 C186.784471,470.32 173.214471,458.67 175.314471,445.42 L227.744471,113.42 C229.834471,100.18 216.264471,88.53 198.744471,88.53 C191.873662,88.4452822 185.131134,90.3935875 179.364471,94.13 C174.184471,97.62 170.634471,102.53 169.754471,108.13 L115.614471,450.7 C113.854471,461.87 101.404471,470.28 86.6144705,470.28 L29.2144705,470.28 C11.7044705,470.28 -1.88552947,458.63 0.214470532,445.39 L67.3044705,19.59 C69.0644705,8.41 81.5244705,0.01 96.3044705,0.01 L503.854471,0.01 C510.127019,-0.0627272921 516.304506,1.54638905 521.744471,4.67 C529.524471,9.27 534.144471,16.79 532.864471,24.9 L465.774471,450.68 L438.344471,627.07 C437.464471,632.67 443.204471,637.59 450.614471,637.59 L491.824471,637.59 C498.084471,637.59 503.354471,634.03 504.094471,629.3 L525.984471,489.87 C526.734471,485.13 531.984471,481.57 538.264471,481.57 L629.594471,481.57 C637.044471,481.59 642.784471,486.52 641.904471,492.12 Z" id="Path" fill="url(#linearGradient-1)"></path>
                <path d="M726.594471,318.87 C725.704471,324.47 722.144471,329.36 716.964471,332.87 C711.197807,336.606413 704.455279,338.554718 697.584471,338.47 C680.074471,338.47 666.484471,326.81 668.584471,313.56 L700.644471,108.94 C700.992496,106.729928 700.355591,104.478266 698.901473,102.777948 C697.447355,101.07763 695.321777,100.099087 693.084471,100.1 L592.364471,100.1 C588.594491,100.099234 585.385984,102.845139 584.804471,106.57 L538.534471,402.09 C536.444471,415.33 550.034471,426.99 567.534471,426.99 L799.984471,426.99 C814.784471,426.99 827.224471,418.58 828.984471,407.39 L875.704471,108.94 C876.052496,106.729928 875.415591,104.478266 873.961473,102.777948 C872.507355,101.07763 870.381777,100.099087 868.144471,100.1 L767.414471,100.1 C763.644491,100.099234 760.435984,102.845139 759.854471,106.57 L726.594471,318.87 Z" id="Path" fill="url(#linearGradient-2)"></path>
                <path d="M262.894471,529.99 L175.984471,529.99 C168.604471,529.99 162.394471,534.19 161.514471,539.76 L155.984471,574.97 C155.596299,577.470457 156.319877,580.01571 157.965377,581.938024 C159.610878,583.860337 162.014064,584.967846 164.544471,584.97 L263.224471,584.97 C267.488295,584.972891 271.119787,581.871699 271.784471,577.66 L277.374471,542.38 C278.394471,535.8 271.624471,529.99 262.894471,529.99 Z" id="Path" fill="url(#linearGradient-3)"></path>
                <path d="M700.324471,-2.27373675e-13 L613.434471,-2.27373675e-13 C606.054471,-2.27373675e-13 599.844471,4.2 598.964471,9.77 L593.394471,44.98 C593.006299,47.4804568 593.729877,50.0257101 595.375377,51.9480238 C597.020878,53.8703375 599.424064,54.9778462 601.954471,54.98 L700.634471,54.98 C704.896745,54.9786879 708.525879,51.8795098 709.194471,47.67 L714.774471,12.39 C715.834471,5.81 709.054471,-2.27373675e-13 700.324471,-2.27373675e-13 Z" id="Path" fill="url(#linearGradient-4)"></path>
                <path d="M875.404471,-2.27373675e-13 L788.514471,-2.27373675e-13 C781.134471,-2.27373675e-13 774.924471,4.2 774.044471,9.77 L768.474471,44.98 C768.086299,47.4804568 768.809877,50.0257101 770.455377,51.9480238 C772.100878,53.8703375 774.504064,54.9778462 777.034471,54.98 L875.714471,54.98 C879.976745,54.9786879 883.605879,51.8795098 884.274471,47.67 L889.854471,12.39 C890.914471,5.81 884.134471,-2.27373675e-13 875.404471,-2.27373675e-13 Z" id="Path" fill="url(#linearGradient-4)"></path>
                <path d="M97.6744705,943.33 C96.6744705,949.93 103.414471,955.74 112.144471,955.74 L199.034471,955.74 C206.404471,955.74 212.624471,951.54 213.484471,945.97 L261.874471,640.12 C262.262642,637.619543 261.539064,635.07429 259.893564,633.151976 C258.248063,631.229663 255.844877,630.122154 253.314471,630.12 L154.634471,630.12 C150.368961,630.122092 146.73865,633.226517 146.074471,637.44 L97.6744705,943.33 Z" id="Path" fill="url(#linearGradient-5)"></path>
            </g>
        </g>
    </g>
</svg>