<?xml version="1.0" encoding="UTF-8"?>
<svg width="20px" height="20px" viewBox="0 0 20 20" version="1.1" xmlns="http://www.w3.org/2000/svg" xmlns:xlink="http://www.w3.org/1999/xlink">
    <!-- Generator: Sketch 53 (72520) - https://sketchapp.com -->
    <title>address</title>
    <desc>Created with Sketch.</desc>
    <g id="Page-1" stroke="none" stroke-width="1" fill="none" fill-rule="evenodd">
        <g id="address" fill="#FFFFFF" fill-rule="nonzero">
            <path d="M7.98828125,17.9581192 L7.98828125,19.9886809 L7.49847414,19.5920521 C7.42279055,19.5307146 5.62210082,18.0651921 3.79608156,15.9636564 C1.27716063,13.0645803 0,10.4622492 0,8.22916668 L0,8.00783162 C0,3.59229686 3.5835266,0 7.98828125,0 C12.3930359,0 15.9765625,3.59229686 15.9765625,8.00783162 L15.9765625,8.22916668 C15.9765625,8.41669725 15.9666443,8.60713414 15.9486389,8.79986537 L14.3864441,7.37120658 C14.0664673,4.11496576 11.3192749,1.56250001 7.98828125,1.56250001 C4.44305422,1.56250001 1.55868531,4.45392807 1.55868531,8.00783162 L1.55868531,8.22916668 C1.55868531,12.0027227 6.40884398,16.5709129 7.98828125,17.9581192 Z M12.7812195,16.8358419 L15.1191711,16.8358419 L15.1191711,14.4921684 L12.7812195,14.4921684 L12.7812195,16.8358419 Z M7.98828125,4.68749999 C9.8146057,4.68749999 11.3005066,6.17703745 11.3005066,8.00783162 C11.3005066,9.83862579 9.8146057,11.3281633 7.98828125,11.3281633 C6.1619568,11.3281633 4.6760559,9.83862579 4.6760559,8.00783162 C4.6760559,6.17703745 6.1619568,4.68749999 7.98828125,4.68749999 Z M7.98828125,6.25 C7.0213318,6.25 6.23474121,7.03851567 6.23474121,8.00783162 C6.23474121,8.97699462 7.0213318,9.76566324 7.98828125,9.76566324 C8.95507813,9.76566324 9.74182129,8.97699462 9.74182129,8.00783162 C9.74182129,7.03851567 8.95507813,6.25 7.98828125,6.25 Z M18.949585,15.7741373 L18.5113525,15.3733786 L18.5113525,17.8817915 C18.5113525,19.0498042 17.563324,20 16.3981629,20 L11.4633179,20 C10.2981567,20 9.35012816,19.0498042 9.35012816,17.8817915 L9.35012816,15.3733786 L8.91189574,15.7741373 L7.8614807,14.6198911 L13.9306641,9.06938326 L20,14.6198911 L18.949585,15.7741373 Z M16.9526672,13.9479319 L13.9306641,11.1843796 L10.9088135,13.9479319 L10.9088135,17.8816385 C10.9088135,18.188173 11.1575317,18.4375 11.4633179,18.4375 L16.3981629,18.4375 C16.703949,18.4375 16.9526672,18.188173 16.9526672,17.8816385 L16.9526672,13.9479319 Z" id="Shape"></path>
        </g>
    </g>
</svg>