<?xml version="1.0" encoding="UTF-8"?>
<svg width="90px" height="90px" viewBox="0 0 90 90" version="1.1" xmlns="http://www.w3.org/2000/svg" xmlns:xlink="http://www.w3.org/1999/xlink">
    <!-- Generator: Sketch 53 (72520) - https://sketchapp.com -->
    <title>blog</title>
    <desc>Created with Sketch.</desc>
    <g id="Page-1" stroke="none" stroke-width="1" fill="none" fill-rule="evenodd">
        <g id="blog" fill-rule="nonzero">
            <ellipse id="Oval" fill="#A53535" cx="45" cy="46.9335938" rx="45" ry="43.0664062"></ellipse>
            <path d="M9.35155102,73.2148242 C17.5803061,83.4226172 30.4864898,90 45,90 C53.7683878,90 61.9492041,87.5974219 68.868,83.4461719 L68.868,23.615332 L9.35155102,23.615332 L9.35155102,73.2148242 Z" id="Path" fill="#D9EAFC"></path>
            <path d="M12.996,23.615332 L9.35155102,23.615332 L9.35155102,73.2148242 C10.4800408,74.6147461 11.699449,75.9436523 12.996,77.1994336 L12.996,23.615332 Z" id="Path" fill="#C3DDF4"></path>
            <rect id="Rectangle" fill="#02AF8E" x="9.35155102" y="6.31089844" width="59.5157143" height="17.4796875"></rect>
            <rect id="Rectangle" fill="#0F9390" x="9.35155102" y="6.31089844" width="3.64444898" height="17.4796875"></rect>
            <path d="M67.1126327,0 L11.107102,0 C10.1415306,0 9.35155102,0.756035156 9.35155102,1.68011719 L9.35155102,6.48667969 L68.868,6.48667969 L68.868,1.68011719 C68.868,0.756035156 68.0780204,0 67.1126327,0 Z" id="Path" fill="#1A2B63"></path>
            <path d="M61.8942857,52.0017187 C61.8942857,52.3471289 61.5989388,52.6297852 61.2382041,52.6297852 L34.9907143,52.6297852 C34.6297959,52.6297852 34.3346327,52.3471289 34.3346327,52.0017187 L34.3346327,35.1717187 C34.3346327,34.8263086 34.6297959,34.5436523 34.9907143,34.5436523 L61.2382041,34.5436523 C61.5991224,34.5436523 61.8942857,34.8261328 61.8942857,35.1717187 L61.8942857,52.0017187 Z" id="Path" fill="#52BBEF"></path>
            <path d="M37.9790816,52.0017187 L37.9790816,35.1717187 C37.9790816,34.8263086 38.2742449,34.5436523 38.6351633,34.5436523 L34.9907143,34.5436523 C34.6297959,34.5436523 34.3346327,34.8261328 34.3346327,35.1717187 L34.3346327,52.0017187 C34.3346327,52.3471289 34.6297959,52.6297852 34.9907143,52.6297852 L38.6351633,52.6297852 C38.2742449,52.6296094 37.9790816,52.3469531 37.9790816,52.0017187 Z" id="Path" fill="#1E99D6"></path>
            <path d="M55.5999796,44.3770313 C55.3672653,44.1130078 54.9866939,44.1130078 54.7541633,44.3770313 L51.3427959,48.2505469 C51.1100816,48.5145703 50.7296939,48.5145703 50.4971633,48.2505469 L44.0577551,40.9396289 C43.8250408,40.6756055 43.4446531,40.6756055 43.2121224,40.9396289 L34.3348163,51.01875 L34.3348163,52.001543 C34.3348163,52.3469531 34.6299796,52.6296094 34.990898,52.6296094 L61.2383878,52.6296094 C61.5993061,52.6296094 61.8944694,52.3469531 61.8944694,52.001543 L61.8944694,51.523418 L55.5999796,44.3770313 Z" id="Path" fill="#02AF8E"></path>
            <ellipse id="Oval" fill="#FFD00D" cx="57.9177551" cy="38.0707031" rx="1.96861224" ry="1.88402344"></ellipse>
            <g id="Group" transform="translate(34.346939, 29.707031)" fill="#1E99D6">
                <path d="M26.6297143,28.2065625 L1.43210204,28.2065625 C0.671326531,28.2065625 0.0545510204,27.6162891 0.0545510204,26.8882031 C0.0545510204,26.1601172 0.671326531,25.5698438 1.43210204,25.5698438 L26.629898,25.5698438 C27.3906735,25.5698438 28.007449,26.1601172 28.007449,26.8882031 C28.007449,27.6162891 27.3904898,28.2065625 26.6297143,28.2065625 Z" id="Path"></path>
                <path d="M26.6297143,32.7125391 L1.43210204,32.7125391 C0.671326531,32.7125391 0.0545510204,32.1222656 0.0545510204,31.3941797 C0.0545510204,30.6660938 0.671326531,30.0758203 1.43210204,30.0758203 L26.629898,30.0758203 C27.3906735,30.0758203 28.007449,30.6660938 28.007449,31.3941797 C28.0072653,32.1222656 27.3904898,32.7125391 26.6297143,32.7125391 Z" id="Path"></path>
                <path d="M26.6297143,37.2185156 L1.43210204,37.2185156 C0.671326531,37.2185156 0.0545510204,36.6282422 0.0545510204,35.9001563 C0.0545510204,35.1720703 0.671326531,34.5817969 1.43210204,34.5817969 L26.629898,34.5817969 C27.3906735,34.5817969 28.007449,35.1720703 28.007449,35.9001563 C28.0072653,36.628418 27.3904898,37.2185156 26.6297143,37.2185156 Z" id="Path"></path>
                <path d="M26.6297143,41.724668 L1.43210204,41.724668 C0.671326531,41.724668 0.0545510204,41.1343945 0.0545510204,40.4063086 C0.0545510204,39.6782227 0.671326531,39.0879492 1.43210204,39.0879492 L26.629898,39.0879492 C27.3906735,39.0879492 28.007449,39.6782227 28.007449,40.4063086 C28.007449,41.1343945 27.3904898,41.724668 26.6297143,41.724668 Z" id="Path"></path>
                <path d="M14.0813265,46.2306445 L1.43210204,46.2306445 C0.671326531,46.2306445 0.0545510204,45.6403711 0.0545510204,44.9122852 C0.0545510204,44.1841992 0.671326531,43.5939258 1.43210204,43.5939258 L14.0813265,43.5939258 C14.842102,43.5939258 15.4588776,44.1841992 15.4588776,44.9122852 C15.4588776,45.6403711 14.842102,46.2306445 14.0813265,46.2306445 Z" id="Path"></path>
                <path d="M14.0813265,2.63689453 L1.43210204,2.63689453 C0.671326531,2.63689453 0.0545510204,2.04662109 0.0545510204,1.31853516 C0.0545510204,0.590449219 0.671326531,0.00017578125 1.43210204,0.00017578125 L14.0813265,0.00017578125 C14.842102,0.00017578125 15.4588776,0.590449219 15.4588776,1.31853516 C15.4588776,2.04662109 14.842102,2.63689453 14.0813265,2.63689453 Z" id="Path"></path>
            </g>
            <g id="Group" transform="translate(15.795918, 53.789062)" fill="#EEF6FF">
                <path d="M0.13022449,12.9837305 C0.13022449,12.500332 0.543489796,12.1048242 1.04859184,12.1048242 L13.2557143,12.1048242 C13.7608163,12.1048242 14.1740816,12.500332 14.1740816,12.9837305 L14.1740816,21.2113477 C14.1740816,21.6947461 13.7608163,22.0902539 13.2557143,22.0902539 L1.04859184,22.0902539 C0.543489796,22.0902539 0.13022449,21.6947461 0.13022449,21.2113477 L0.13022449,12.9837305 Z" id="Path"></path>
                <path d="M0.13022449,1.02375 C0.13022449,0.540351563 0.543489796,0.14484375 1.04859184,0.14484375 L13.2557143,0.14484375 C13.7608163,0.14484375 14.1740816,0.540351563 14.1740816,1.02375 L14.1740816,9.25136719 C14.1740816,9.73476562 13.7608163,10.1302734 13.2557143,10.1302734 L1.04859184,10.1302734 C0.543489796,10.1302734 0.13022449,9.73476562 0.13022449,9.25136719 L0.13022449,1.02375 Z" id="Path"></path>
            </g>
            <g id="Group" transform="translate(15.795918, 29.882812)" fill="#FFDD8D">
                <path d="M0.13022449,12.9700195 C0.13022449,12.4866211 0.543489796,12.0911133 1.04859184,12.0911133 L13.2557143,12.0911133 C13.7608163,12.0911133 14.1740816,12.4866211 14.1740816,12.9700195 L14.1740816,21.1976367 C14.1740816,21.6810352 13.7608163,22.076543 13.2557143,22.076543 L1.04859184,22.076543 C0.543489796,22.076543 0.13022449,21.6810352 0.13022449,21.1976367 L0.13022449,12.9700195 Z" id="Path"></path>
                <path d="M0.13022449,1.01003906 C0.13022449,0.526640625 0.543489796,0.131132813 1.04859184,0.131132813 L13.2557143,0.131132813 C13.7608163,0.131132813 14.1740816,0.526640625 14.1740816,1.01003906 L14.1740816,9.23765625 C14.1740816,9.72105469 13.7608163,10.1165625 13.2557143,10.1165625 L1.04859184,10.1165625 C0.543489796,10.1165625 0.13022449,9.72105469 0.13022449,9.23765625 L0.13022449,1.01003906 Z" id="Path"></path>
            </g>
            <g id="Group" transform="translate(15.795918, 53.789062)" fill="#C3DDF4">
                <path d="M3.77467347,21.2113477 L3.77467347,12.9837305 C3.77467347,12.500332 4.18793878,12.1048242 4.69304082,12.1048242 L1.04859184,12.1048242 C0.543489796,12.1048242 0.13022449,12.500332 0.13022449,12.9837305 L0.13022449,21.2113477 C0.13022449,21.6947461 0.543489796,22.0902539 1.04859184,22.0902539 L4.69304082,22.0902539 C4.18793878,22.0902539 3.77467347,21.6947461 3.77467347,21.2113477 Z" id="Path"></path>
                <path d="M3.77467347,9.25136719 L3.77467347,1.02375 C3.77467347,0.540351563 4.18793878,0.14484375 4.69304082,0.14484375 L1.04859184,0.14484375 C0.543489796,0.14484375 0.13022449,0.540351563 0.13022449,1.02375 L0.13022449,9.25136719 C0.13022449,9.73476562 0.543489796,10.1302734 1.04859184,10.1302734 L4.69304082,10.1302734 C4.18793878,10.1302734 3.77467347,9.73476562 3.77467347,9.25136719 Z" id="Path"></path>
            </g>
            <g id="Group" transform="translate(15.795918, 29.882812)" fill="#FF9F60">
                <path d="M3.77467347,21.1976367 L3.77467347,12.9700195 C3.77467347,12.4866211 4.18793878,12.0911133 4.69304082,12.0911133 L1.04859184,12.0911133 C0.543489796,12.0911133 0.13022449,12.4866211 0.13022449,12.9700195 L0.13022449,21.1976367 C0.13022449,21.6810352 0.543489796,22.076543 1.04859184,22.076543 L4.69304082,22.076543 C4.18793878,22.076543 3.77467347,21.6810352 3.77467347,21.1976367 Z" id="Path"></path>
                <path d="M3.77467347,9.23765625 L3.77467347,1.01003906 C3.77467347,0.526640625 4.18793878,0.131132812 4.69304082,0.131132812 L1.04859184,0.131132812 C0.543489796,0.131132812 0.13022449,0.526640625 0.13022449,1.01003906 L0.13022449,9.23765625 C0.13022449,9.72105469 0.543489796,10.1165625 1.04859184,10.1165625 L4.69304082,10.1165625 C4.18793878,10.1165625 3.77467347,9.72105469 3.77467347,9.23765625 Z" id="Path"></path>
            </g>
            <g id="Group" transform="translate(22.040816, 10.898438)" fill="#FFFFFF">
                <path d="M32.6876327,7.65984375 L1.45028571,7.65984375 C0.689510204,7.65984375 0.0727346939,7.06957031 0.0727346939,6.34148437 C0.0727346939,5.61339844 0.689510204,5.023125 1.45028571,5.023125 L32.6876327,5.023125 C33.4484082,5.023125 34.0651837,5.61339844 34.0651837,6.34148437 C34.0651837,7.06957031 33.4484082,7.65984375 32.6876327,7.65984375 Z" id="Path"></path>
                <path d="M24.8306327,2.69736328 L9.30728571,2.69736328 C8.5465102,2.69736328 7.92973469,2.10708984 7.92973469,1.37900391 C7.92973469,0.650917969 8.5465102,0.0606445312 9.30728571,0.0606445312 L24.8306327,0.0606445312 C25.5914082,0.0606445312 26.2081837,0.650917969 26.2081837,1.37900391 C26.2081837,2.10708984 25.5914082,2.69736328 24.8306327,2.69736328 Z" id="Path"></path>
            </g>
            <path d="M13.5644694,4.59685547 C13.1888571,4.59685547 12.8229796,4.45148437 12.5575714,4.19923828 C12.2938163,3.94523438 12.1422857,3.59490234 12.1422857,3.23560547 C12.1422857,2.87789063 12.2938163,2.52773437 12.5575714,2.27373047 C12.8229796,2.01955078 13.1890408,1.87453125 13.5644694,1.87453125 C13.9378776,1.87453125 14.3057755,2.01972656 14.5693469,2.27373047 C14.8349388,2.52773437 14.9866531,2.87789063 14.9866531,3.23560547 C14.9866531,3.59490234 14.8349388,3.94505859 14.5693469,4.19923828 C14.3057755,4.45148438 13.9378776,4.59685547 13.5644694,4.59685547 Z" id="Path" fill="#FE3745"></path>
            <path d="M18.2281224,4.59685547 C17.8545306,4.59685547 17.4866327,4.45148437 17.2228776,4.19748047 C16.9576531,3.94523438 16.8057551,3.59507813 16.8057551,3.23578125 C16.8057551,2.87806641 16.9574694,2.52791016 17.2228776,2.27390625 C17.4884694,2.01972656 17.8543469,1.87470703 18.2281224,1.87470703 C18.603551,1.87470703 18.9694286,2.01990234 19.2350204,2.27390625 C19.4985918,2.52791016 19.6503061,2.87806641 19.6503061,3.23578125 C19.6503061,3.59332031 19.4985918,3.94523438 19.2350204,4.19748047 C18.9694286,4.45148438 18.603551,4.59685547 18.2281224,4.59685547 Z" id="Path" fill="#FFD00D"></path>
            <path d="M22.8939796,4.59685547 C22.518551,4.59685547 22.1524898,4.45148437 21.8889184,4.19923828 C21.6235102,3.94523438 21.4717959,3.59490234 21.4717959,3.23560547 C21.4717959,2.87789063 21.6235102,2.52773437 21.8889184,2.27373047 C22.1524898,2.01955078 22.518551,1.87453125 22.8939796,1.87453125 C23.2675714,1.87453125 23.6354694,2.01972656 23.8990408,2.27373047 C24.164449,2.52773437 24.3161633,2.87789063 24.3161633,3.23560547 C24.3161633,3.59490234 24.164449,3.94505859 23.8990408,4.19923828 C23.633449,4.45148438 23.2675714,4.59685547 22.8939796,4.59685547 Z" id="Path" fill="#37C47A"></path>
            <path d="M72.2292245,67.2507422 C72.2292245,69.2460352 73.935,70.8785156 76.0198776,70.8785156 L76.3989796,70.8785156 C78.4838571,70.8785156 80.1896327,69.2458594 80.1896327,67.2507422 L80.1896327,64.8929883 L72.2292245,64.8929883 L72.2292245,67.2507422 L72.2292245,67.2507422 Z" id="Path" fill="#F87EAB"></path>
            <path d="M79.7758163,8.94796875 L76.6234286,2.73480469 C76.3958571,2.28603516 76.0231837,2.28603516 75.7956122,2.73480469 L72.6432245,8.94796875 C72.4156531,9.3965625 72.2292245,10.1719336 72.2292245,10.6708008 L72.2292245,12.3797461 L80.1896327,12.3797461 L80.1896327,10.6708008 C80.1896327,10.1719336 80.0035714,9.3965625 79.7758163,8.94796875 Z" id="Path" fill="#FFE2B8"></path>
            <rect id="Rectangle" fill="#FFAF10" x="72.2295918" y="12.1992188" width="7.96040816" height="52.8767578"></rect>
            <rect id="Rectangle" fill="#FF9518" x="72.2295918" y="12.1992188" width="3.64444898" height="52.8767578"></rect>
            <path d="M75.7956122,2.73480469 L74.0314286,6.21158203 L78.3874286,6.21158203 L76.6234286,2.73480469 C76.3958571,2.28585937 76.0233673,2.28585937 75.7956122,2.73480469 Z" id="Path" fill="#293D7C"></path>
        </g>
    </g>
</svg>