<?xml version="1.0" encoding="UTF-8"?>
<svg width="90px" height="90px" viewBox="0 0 90 90" version="1.1" xmlns="http://www.w3.org/2000/svg" xmlns:xlink="http://www.w3.org/1999/xlink">
    <!-- Generator: Sketch 53 (72520) - https://sketchapp.com -->
    <title>calendar</title>
    <desc>Created with Sketch.</desc>
    <defs>
        <linearGradient x1="35.7674784%" y1="13.0017859%" x2="57.5622352%" y2="69.6491298%" id="linearGradient-1">
            <stop stop-color="#00A6F9" offset="0%"></stop>
            <stop stop-color="#0071E2" offset="100%"></stop>
        </linearGradient>
        <linearGradient x1="15.8273271%" y1="26.5502354%" x2="84.4884483%" y2="71.9364264%" id="linearGradient-2">
            <stop stop-color="#C2CECE" offset="0%"></stop>
            <stop stop-color="#97AAAA" offset="100%"></stop>
        </linearGradient>
        <linearGradient x1="50.0017828%" y1="90.8955968%" x2="50.0017828%" y2="19.3530309%" id="linearGradient-3">
            <stop stop-color="#C2CECE" stop-opacity="0" offset="0%"></stop>
            <stop stop-color="#AFBCBC" stop-opacity="0.179" offset="17.9%"></stop>
            <stop stop-color="#5B6A6A" offset="100%"></stop>
        </linearGradient>
        <linearGradient x1="13.4979621%" y1="43.5781599%" x2="107.126208%" y2="61.1116267%" id="linearGradient-4">
            <stop stop-color="#00A6F9" offset="0%"></stop>
            <stop stop-color="#0071E2" offset="100%"></stop>
        </linearGradient>
        <linearGradient x1="50.0015192%" y1="90.3735879%" x2="50.0015192%" y2="104.459359%" id="linearGradient-5">
            <stop stop-color="#008BF2" stop-opacity="0" offset="0.01%"></stop>
            <stop stop-color="#0046E2" offset="100%"></stop>
        </linearGradient>
        <linearGradient x1="65.1353068%" y1="49.5972296%" x2="1.0048904%" y2="20.7694932%" id="linearGradient-6">
            <stop stop-color="#008BF2" stop-opacity="0" offset="0.01%"></stop>
            <stop stop-color="#0046E2" offset="100%"></stop>
        </linearGradient>
        <linearGradient x1="42.6597569%" y1="48.1601253%" x2="31.2239994%" y2="46.3799299%" id="linearGradient-7">
            <stop stop-color="#C2CECE" stop-opacity="0" offset="0%"></stop>
            <stop stop-color="#AFBCBC" stop-opacity="0.179" offset="17.9%"></stop>
            <stop stop-color="#5B6A6A" offset="100%"></stop>
        </linearGradient>
        <linearGradient x1="50.0046295%" y1="32.6124222%" x2="50.0046295%" y2="-113.23473%" id="linearGradient-8">
            <stop stop-color="#C2CECE" stop-opacity="0" offset="0%"></stop>
            <stop stop-color="#AFBCBC" stop-opacity="0.179" offset="17.9%"></stop>
            <stop stop-color="#5B6A6A" offset="100%"></stop>
        </linearGradient>
        <linearGradient x1="50.0373118%" y1="33.1680228%" x2="50.0373118%" y2="-115.16385%" id="linearGradient-9">
            <stop stop-color="#C2CECE" stop-opacity="0" offset="0%"></stop>
            <stop stop-color="#AFBCBC" stop-opacity="0.179" offset="17.9%"></stop>
            <stop stop-color="#5B6A6A" offset="100%"></stop>
        </linearGradient>
        <linearGradient x1="49.8545911%" y1="49.6895837%" x2="46.0725593%" y2="56.2908273%" id="linearGradient-10">
            <stop stop-color="#008BF2" stop-opacity="0" offset="0.01%"></stop>
            <stop stop-color="#0046E2" offset="100%"></stop>
        </linearGradient>
        <linearGradient x1="65.2129589%" y1="61.3349956%" x2="25.8809181%" y2="15.553873%" id="linearGradient-11">
            <stop stop-color="#008BF2" stop-opacity="0" offset="0.01%"></stop>
            <stop stop-color="#0046E2" offset="100%"></stop>
        </linearGradient>
        <linearGradient x1="50.0137667%" y1="1.35817331%" x2="50.0137667%" y2="310.000167%" id="linearGradient-12">
            <stop stop-color="#FFC200" offset="0%"></stop>
            <stop stop-color="#FFBB00" offset="26.8%"></stop>
            <stop stop-color="#FFA801" offset="65.9%"></stop>
            <stop stop-color="#FF9102" offset="100%"></stop>
        </linearGradient>
        <linearGradient x1="16.0721119%" y1="49.9769205%" x2="106.276655%" y2="49.9769205%" id="linearGradient-13">
            <stop stop-color="#FFC200" stop-opacity="0" offset="0%"></stop>
            <stop stop-color="#FFBB00" stop-opacity="0.203" offset="20.3%"></stop>
            <stop stop-color="#FFA700" stop-opacity="0.499" offset="49.9%"></stop>
            <stop stop-color="#FF8800" stop-opacity="0.852" offset="85.2%"></stop>
            <stop stop-color="#FF7800" offset="100%"></stop>
        </linearGradient>
        <linearGradient x1="65.2175078%" y1="61.3348726%" x2="25.8855727%" y2="15.553873%" id="linearGradient-14">
            <stop stop-color="#008BF2" stop-opacity="0" offset="0.01%"></stop>
            <stop stop-color="#0046E2" offset="100%"></stop>
        </linearGradient>
        <linearGradient x1="50.0261892%" y1="1.35817331%" x2="50.0261892%" y2="310.000167%" id="linearGradient-15">
            <stop stop-color="#FFC200" offset="0%"></stop>
            <stop stop-color="#FFBB00" offset="26.8%"></stop>
            <stop stop-color="#FFA801" offset="65.9%"></stop>
            <stop stop-color="#FF9102" offset="100%"></stop>
        </linearGradient>
        <linearGradient x1="16.1481449%" y1="49.9769205%" x2="106.295812%" y2="49.9769205%" id="linearGradient-16">
            <stop stop-color="#FFC200" stop-opacity="0" offset="0%"></stop>
            <stop stop-color="#FFBB00" stop-opacity="0.203" offset="20.3%"></stop>
            <stop stop-color="#FFA700" stop-opacity="0.499" offset="49.9%"></stop>
            <stop stop-color="#FF8800" stop-opacity="0.852" offset="85.2%"></stop>
            <stop stop-color="#FF7800" offset="100%"></stop>
        </linearGradient>
    </defs>
    <g id="Page-1" stroke="none" stroke-width="1" fill="none" fill-rule="evenodd">
        <g id="calendar" fill-rule="nonzero">
            <path d="M79.7127539,5.39144628 L10.286543,5.39144628 C8.33677734,5.39144628 6.75421875,7.06555785 6.75421875,9.12811983 L6.75421875,86.227624 C6.75421875,88.290186 8.33677734,89.9642975 10.286543,89.9642975 L79.7127539,89.9642975 C81.6625195,89.9642975 83.2450781,88.290186 83.2450781,86.227624 L83.2450781,9.12811983 C83.2450781,7.06555785 81.6628711,5.39144628 79.7127539,5.39144628 Z" id="Path" fill="url(#linearGradient-1)"></path>
            <path d="M79.7122266,89.9642975 L10.2874219,89.9642975 C8.33660156,89.9642975 6.75509766,88.2914876 6.75509766,86.227624 L6.75509766,45.7473347 L83.2445508,45.7473347 L83.2445508,86.227624 C83.2445508,88.2914876 81.6630469,89.9642975 79.7122266,89.9642975 Z" id="Path" fill="url(#linearGradient-2)"></path>
            <path d="M79.7122266,89.9642975 L10.2874219,89.9642975 C8.33660156,89.9642975 6.75509766,88.2914876 6.75509766,86.227624 L6.75509766,78.3807025 L83.2445508,78.3807025 L83.2445508,86.227624 C83.2445508,88.2914876 81.6630469,89.9642975 79.7122266,89.9642975 Z" id="Path" fill="url(#linearGradient-3)"></path>
            <path d="M86.4657422,80.8718802 L3.53373047,80.8718802 C1.26474609,80.8718802 -0.415722656,78.641219 0.0905273437,76.3015909 L6.75509766,45.4983471 L83.2445508,45.4983471 L89.9091211,76.3015909 C90.4153711,78.641219 88.7347266,80.8718802 86.4657422,80.8718802 Z" id="Path" fill="url(#linearGradient-4)"></path>
            <path d="M86.4657422,80.8718802 L3.53373047,80.8718802 C1.26474609,80.8718802 -0.415722656,78.641219 0.0905273437,76.3015909 L6.75509766,45.4983471 L83.2445508,45.4983471 L89.9091211,76.3015909 C90.4153711,78.641219 88.7347266,80.8718802 86.4657422,80.8718802 Z" id="Path" fill="url(#linearGradient-5)"></path>
            <path d="M86.4657422,80.8718802 C88.7347266,80.8718802 90.4151953,78.641219 89.9089453,76.3015909 L83.244375,45.4983471 L6.75509766,45.4983471 L40.1941406,80.8718802 L86.4657422,80.8718802 Z" id="Path" fill="url(#linearGradient-6)"></path>
            <path d="M83.2445508,80.8718802 L6.75509766,80.8718802 L6.75509766,80.9964669 L15.2325,89.9642975 L79.7122266,89.9642975 C81.6630469,89.9642975 83.2445508,88.2914876 83.2445508,86.227624 L83.2445508,80.8718802 Z" id="Path" fill="url(#linearGradient-7)"></path>
            <g id="Group" transform="translate(26.718750, 24.917355)" fill="#FFFFFF">
                <path d="M0.02390625,27.9922314 L0.02390625,12.2271694 C0.02390625,8.07433884 1.06488281,5.02177686 3.14789062,3.07152893 C5.23001953,1.12109504 8.01316406,0.146157025 11.4953906,0.146157025 C14.977793,0.146157025 17.7690234,1.12128099 19.8687305,3.07152893 C21.9684375,5.02196281 23.0182031,8.07415289 23.0182031,12.2271694 L23.0182031,27.9922314 C23.0182031,32.1459917 21.9684375,35.197624 19.8687305,37.1478719 C17.7688477,39.0983058 14.9779687,40.0732438 11.4953906,40.0732438 C8.01298828,40.0732438 5.22984375,39.0981198 3.14789062,37.1478719 C1.06505859,35.197438 0.02390625,32.1458058 0.02390625,27.9922314 Z M5.45255859,27.9922314 C5.45255859,32.651405 7.46666016,34.9809917 11.4957422,34.9809917 C13.4418164,34.9809917 14.9438672,34.4036157 16.0024219,33.2471901 C17.0602734,32.0918802 17.5899023,30.3404132 17.5899023,27.9922314 L17.5899023,12.2271694 C17.5899023,9.87991736 17.0602734,8.12826446 16.0024219,6.97221074 C14.9438672,5.81690083 13.4418164,5.23840909 11.4957422,5.23840909 C7.46666016,5.23840909 5.45255859,7.56799587 5.45255859,12.2271694 L5.45255859,27.9922314 Z" id="Shape"></path>
                <path d="M26.3469727,8.32667355 C26.3469727,7.38780992 26.7052148,6.64735537 27.4224023,6.10530992 L32.7485742,0.687830579 C33.1236914,0.290826446 33.5847656,0.0918595041 34.1312695,0.0918595041 C34.7459766,0.0918595041 35.3003906,0.263863636 35.7957422,0.606570248 C36.2903906,0.950020661 36.5382422,1.41061983 36.5382422,1.98799587 L36.5382422,37.8520661 C36.5382422,38.430186 36.2645508,38.8907851 35.7189258,39.2334917 C35.1724219,39.5769421 34.5410156,39.7482025 33.8240039,39.7482025 C33.0725391,39.7482025 32.4323438,39.577314 31.9035937,39.2334917 C31.3739648,38.8905992 31.1097656,38.430186 31.1097656,37.8520661 L31.1097656,7.73051653 L29.3173242,10.1142149 C28.9757812,10.4755165 28.6003125,10.6558884 28.1905664,10.6558884 C27.6785156,10.6558884 27.2431055,10.4121074 26.8846875,9.92454545 C26.5260938,9.43716942 26.3469727,8.90479339 26.3469727,8.32667355 Z" id="Path"></path>
            </g>
            <g id="Group" transform="translate(26.718750, 45.371901)">
                <path d="M17.5886719,0.126260331 L17.5886719,7.53731405 C17.5886719,9.88642562 17.0611523,11.6377066 16.001543,12.7935744 C14.9442188,13.9496281 13.4418164,14.527376 11.4966211,14.527376 C7.46736328,14.527376 5.45167969,12.1955579 5.45167969,7.5375 L5.45167969,0.126446281 L0.0237304688,0.126260331 L0.0237304688,7.5375 C0.0237304688,11.6927479 1.06453125,14.7441942 3.14859375,16.6922107 C5.23019531,18.6428306 8.01386719,19.6192562 11.4966211,19.6192562 C14.9772656,19.6192562 17.7700781,18.6428306 19.8682031,16.6922107 C21.9687891,14.7441942 23.0189063,11.692562 23.0189063,7.5375 L23.0189063,0.126260331 L17.5886719,0.126260331 L17.5886719,0.126260331 Z" id="Path" fill="url(#linearGradient-8)"></path>
                <path d="M31.110293,0.126260331 L31.110293,17.3971488 C31.110293,17.9750826 31.3741406,18.4358678 31.9037695,18.7796901 C32.4312891,19.1235124 33.0716602,19.2927273 33.8229492,19.2927273 C34.5411914,19.2927273 35.1724219,19.1233264 35.7185742,18.7796901 C36.2649023,18.4358678 36.5380664,17.9750826 36.5380664,17.3971488 L36.5380664,0.126260331 L31.110293,0.126260331 Z" id="Path" fill="url(#linearGradient-9)"></path>
            </g>
            <path d="M89.9094727,76.3006612 L83.2450781,45.4981612 L83.2450781,9.12811983 C83.2450781,7.06555785 81.6625195,5.39144628 79.7127539,5.39144628 L78.0421289,5.39144628 C79.9918945,5.39144628 81.5744531,7.06555785 81.5744531,9.12811983 L81.5744531,45.4981612 L88.2388477,76.3006612 C88.7450977,78.6423347 87.06375,80.8716942 84.7959961,80.8716942 L86.4666211,80.8716942 C88.734375,80.8718802 90.4157227,78.6421488 89.9094727,76.3006612 Z" id="Path" fill="url(#linearGradient-10)"></path>
            <path d="M30.0346875,12.0477273 C29.3916797,11.4101033 28.9866797,10.5082438 28.9866797,9.50169421 L28.9866797,5.39144628 L35.5802344,5.39144628 L40.9651172,11.0878512 C42.6814453,12.9034711 43.6457812,15.3661983 43.6457812,17.9339876 L43.6457812,17.9339876 C43.6457812,19.815062 42.2776758,21.4328306 40.5012305,21.5178099 C39.4887305,21.566157 38.5771289,21.1289876 37.9423828,20.4130785 L30.0346875,12.0477273 Z" id="Path" fill="url(#linearGradient-11)"></path>
            <path d="M32.2836328,12.9893802 L32.2836328,12.9893802 C30.4628906,12.9893802 28.9868555,11.4279545 28.9868555,9.50188017 L28.9868555,3.52320248 C28.9868555,1.5971281 30.4628906,0.0357024793 32.2836328,0.0357024793 L32.2836328,0.0357024793 C34.104375,0.0357024793 35.5804102,1.5971281 35.5804102,3.52320248 L35.5804102,9.50169421 C35.5804102,11.4279545 34.104375,12.9893802 32.2836328,12.9893802 Z" id="Path" fill="url(#linearGradient-12)"></path>
            <path d="M32.2836328,0.0357024793 L32.2836328,12.9893802 C34.104375,12.9893802 35.5804102,11.4279545 35.5804102,9.50188017 L35.5804102,3.52320248 C35.5804102,1.5971281 34.104375,0.0357024793 32.2836328,0.0357024793 Z" id="Path" fill="url(#linearGradient-13)"></path>
            <path d="M53.9952539,12.0477273 C53.3522461,11.4101033 52.9472461,10.5082438 52.9472461,9.50169421 L52.9472461,5.39144628 L59.5408008,5.39144628 L64.9256836,11.0878512 C66.6420117,12.9034711 67.6063477,15.3661983 67.6063477,17.9339876 L67.6063477,17.9339876 C67.6063477,19.815062 66.2382422,21.4328306 64.4617969,21.5178099 C63.4492969,21.566157 62.5376953,21.1289876 61.9029492,20.4130785 L53.9952539,12.0477273 Z" id="Path" fill="url(#linearGradient-14)"></path>
            <path d="M56.244375,12.9893802 L56.244375,12.9893802 C54.4236328,12.9893802 52.9475977,11.4279545 52.9475977,9.50188017 L52.9475977,3.52320248 C52.9475977,1.5971281 54.4236328,0.0357024793 56.244375,0.0357024793 L56.244375,0.0357024793 C58.0651172,0.0357024793 59.5411523,1.5971281 59.5411523,3.52320248 L59.5411523,9.50169421 C59.5411523,11.4279545 58.0649414,12.9893802 56.244375,12.9893802 Z" id="Path" fill="url(#linearGradient-15)"></path>
            <path d="M56.244375,0.0357024793 L56.244375,12.9893802 C58.0651172,12.9893802 59.5411523,11.4279545 59.5411523,9.50188017 L59.5411523,3.52320248 C59.5411523,1.5971281 58.0649414,0.0357024793 56.244375,0.0357024793 Z" id="Path" fill="url(#linearGradient-16)"></path>
        </g>
    </g>
</svg>