<?xml version="1.0" encoding="UTF-8"?>
<svg width="90px" height="90px" viewBox="0 0 90 90" version="1.1" xmlns="http://www.w3.org/2000/svg" xmlns:xlink="http://www.w3.org/1999/xlink">
    <!-- Generator: Sketch 53 (72520) - https://sketchapp.com -->
    <title>committee</title>
    <desc>Created with Sketch.</desc>
    <g id="Page-1" stroke="none" stroke-width="1" fill="none" fill-rule="evenodd">
        <g id="committee" fill-rule="nonzero">
            <path d="M66.6986846,55.2920792 L78.5604858,43.3918625 C82.9907227,38.9002167 91.5113067,44.5669863 86.9080352,50.0576268 L72.5447846,67.1902073 C71.9824219,67.8606127 71.3362885,68.4551361 70.6235504,68.9577662 C68.3081817,70.4579981 65.5506134,70.9578435 62.8335571,70.9578435 L41.5187072,70.9578435 C39.9771881,70.9578435 38.4363555,71.0483446 36.9051362,71.228651 L30.7747651,71.9269029 L18.0594635,59.4168471 C18.0594635,59.4168471 25.2726746,45.6063583 39.4223785,49.5758818 C42.0687104,50.3186881 44.8070527,50.6723391 47.5529481,50.6723391 L61.561203,50.6723391 C68.1557465,50.6723391 68.2079316,61.2957921 61.5062714,61.2957921 L49.3114472,61.2957921" id="Path" fill="#FFCDAC"></path>
            <path d="M22.4224091,88.205987 L34.519043,75.6235303 C34.5224762,75.6200495 34.5224762,75.6144802 34.519043,75.6109994 L13.9931488,55.4159962 C13.9897157,55.4125154 13.9842225,55.4132117 13.9807891,55.4159962 L1.77017203,68.2685644 L22.4224091,88.205987 Z" id="Path" fill="#F57E20"></path>
            <path d="M16.2851715,17.8788675 C12.4509429,18.247138 9.45098877,21.5204981 9.45098877,25.5046411 L9.45098877,33.6608911 C9.45098877,35.0692296 10.5770874,36.2116337 11.9668579,36.2116337 L29.2181396,36.2116337 C30.6079102,36.2116337 31.7340088,35.0692296 31.7340088,33.6608911 L31.7340088,25.5046411 C31.7340088,21.5177134 28.7299346,18.2415687 24.8908996,17.8781714" id="Path" fill="#F15A24"></path>
            <path d="M29.0341187,10.4897896 C29.0341187,15.2167388 25.2548218,19.0484219 20.5924989,19.0484219 C15.9301758,19.0484219 12.1508789,15.2167388 12.1508789,10.4897896 C12.1508789,5.76284044 15.9301758,1.93046097 20.5924989,1.93046097 C25.2548218,1.93046097 29.0341187,5.76284044 29.0341187,10.4897896 Z" id="Path" fill="#FFCDAC"></path>
            <path d="M38.5688781,17.8788675 C34.7346496,18.247138 31.7340088,21.5204981 31.7340088,25.5046411 L31.7340088,33.6608911 C31.7340088,35.0692296 32.860794,36.2116337 34.2505645,36.2116337 L51.5018463,36.2116337 C52.8916168,36.2116337 54.0177154,35.0692296 54.0177154,33.6608911 L54.0177154,25.5046411 C54.0177154,21.5177134 51.0129547,18.2415687 47.1746064,17.8781714" id="Path" fill="#DD005E"></path>
            <path d="M51.3178253,10.4897896 C51.3178253,15.2167388 47.5385284,19.0484219 42.8762055,19.0484219 C38.2138824,19.0484219 34.4338989,15.2167388 34.4338989,10.4897896 C34.4338989,5.76284044 38.2138824,1.93046097 42.8762055,1.93046097 C47.5385284,1.93046097 51.3178253,5.76284044 51.3178253,10.4897896 Z" id="Path" fill="#FFCDAC"></path>
            <path d="M60.8525849,17.8788675 C57.0176698,18.247138 54.0177154,21.5204981 54.0177154,25.5046411 L54.0177154,33.6608911 C54.0177154,35.0692296 55.1445008,36.2116337 56.5335846,36.2116337 L73.7848663,36.2116337 C75.1746368,36.2116337 76.301422,35.0692296 76.301422,33.6608911 L76.301422,25.5046411 C76.301422,21.5177134 73.2966613,18.2415687 69.4576264,17.8781714" id="Path" fill="#F7931E"></path>
            <path d="M73.6015321,10.4897896 C73.6015321,15.2167388 69.8215484,19.0484219 65.1592255,19.0484219 C60.4969024,19.0484219 56.7176055,15.2167388 56.7176055,10.4897896 C56.7176055,5.76284044 60.4969024,1.93046097 65.1592255,1.93046097 C69.8215484,1.93046097 73.6015321,5.76284044 73.6015321,10.4897896 L73.6015321,10.4897896 Z" id="Path" fill="#FFCDAC"></path>
            <path d="M87.8734589,42.0712407 C86.5262603,40.8111851 84.6936035,40.0328743 82.8451538,39.9354115 C80.7460785,39.8254177 78.7795258,40.5842357 77.314911,42.0698484 L67.3077393,52.1092203 C67.1099854,51.7618347 66.884079,51.4339417 66.6307069,51.1297184 C65.3995513,49.6475866 63.5991669,48.8316832 61.5618896,48.8316832 L47.5529481,48.8316832 C44.9114228,48.8316832 42.3344422,48.4842976 39.894104,47.7999691 C33.5316466,46.0157024 27.4534608,47.3189202 22.3152924,51.5710861 C20.2258301,53.3003559 18.7014771,55.1813892 17.7374268,56.5528311 L15.2256776,54.0814511 C14.895401,53.7563427 14.4477081,53.5718595 13.9869689,53.5718595 C13.9828491,53.5718595 13.9794159,53.5718595 13.975296,53.5718595 C13.4980773,53.5753404 13.0366515,53.7765316 12.7056885,54.1246133 L0.495071367,66.9764851 C0.168228105,67.3203899 -0.00961303711,67.7826424 0.000686645508,68.2602104 C0.0109863281,68.7384747 0.208053633,69.1923732 0.549316406,69.5216584 L21.2015533,89.4590811 C21.5441895,89.7897586 21.9836426,89.9547494 22.4224091,89.9547494 C22.8831483,89.9547494 23.3438873,89.7730507 23.6906434,89.4124381 L35.7872773,76.8299813 C36.1175537,76.4860767 36.3008881,76.0161664 36.2919618,75.5358138 C36.2830352,75.0624227 36.0873413,74.6057395 35.7522583,74.275758 L34.6989442,73.2398669 L37.1097564,72.9648823 C38.5681915,72.7929301 40.0513458,72.7059097 41.519394,72.7059097 L62.8335571,72.7059097 C66.2969971,72.7059097 69.2385864,71.9380415 71.5773009,70.42319 C71.5965272,70.410659 71.6157531,70.3974318 71.6349793,70.3842049 C72.4726867,69.7938583 73.2328033,69.094214 73.8933564,68.305461 L88.256607,51.1735767 C90.7147979,48.2420328 90.5609893,44.5836942 87.8734589,42.0712407 Z M22.3764038,85.636448 L4.28054801,68.1669246 L14.0288544,57.9061727 L32.0189667,75.6061262 L22.3764038,85.636448 Z M85.5587769,48.8483911 L71.1955262,65.9809714 C70.7395936,66.5246752 70.2170562,67.0078125 69.6409608,67.4171565 C67.8852081,68.544245 65.5952453,69.1164912 62.8335571,69.1164912 L41.5187072,69.1164912 C39.9153901,69.1164912 38.2942199,69.2118658 36.7073822,69.3991337 L31.4078521,70.002011 L20.3116607,59.0847772 C21.0827637,57.9256653 22.5006866,56.0522896 24.5544434,54.3522586 C28.824005,50.8185335 33.6676025,49.7777692 38.9499664,51.259901 C41.6979218,52.0305539 44.5921327,52.4217976 47.5529481,52.4217976 L61.5618896,52.4217976 C64.0777588,52.4217976 64.749298,54.6314202 64.749298,55.9367266 C64.749298,56.8904703 64.447174,57.7982673 63.920517,58.427599 C63.3492279,59.109143 62.5369263,59.45444 61.5062714,59.45444 L49.3114472,59.45444 C48.333664,59.45444 47.541275,60.2585088 47.541275,61.2498454 C47.541275,62.241182 48.333664,63.0445545 49.3114472,63.0445545 L61.5062714,63.0445545 C63.5648346,63.0445545 65.3803253,62.2300434 66.6190338,60.7513922 C67.6496886,59.5219678 68.2374572,57.9054764 68.2868957,56.177599 L79.8122406,44.6150217 C81.4595031,42.9449257 84.0330506,43.364016 85.4729462,44.710396 C86.2172699,45.4065594 87.218399,46.8691986 85.5587769,48.8483911 L85.5587769,48.8483911 Z" id="Shape" fill="#000000"></path>
            <path d="M43.7901307,60.7715811 C43.5669708,59.8060025 42.6145936,59.2079981 41.6622162,59.433555 C40.7105255,59.6598081 40.1193237,60.6253867 40.3431701,61.5909653 L40.3596496,61.6640625 C40.5512237,62.4911045 41.2783813,63.0494276 42.0817567,63.0494276 C42.2156524,63.0494276 42.3516083,63.034112 42.487564,63.0020885 C43.4399414,62.7758355 44.0304565,61.8095606 43.8072968,60.8446782 L43.7901307,60.7715811 Z" id="Path" fill="#000000"></path>
            <path d="M11.9668579,37.960396 L29.2181396,37.960396 C30.1574707,37.960396 31.0267638,37.6512995 31.7340088,37.1291771 C32.4412538,37.6512995 33.3105469,37.960396 34.2498779,37.960396 L51.5018463,37.960396 C52.4411773,37.960396 53.3104706,37.6512995 54.0177154,37.1291771 C54.7249604,37.6512995 55.5942535,37.960396 56.5335846,37.960396 L73.7848663,37.960396 C76.1483002,37.960396 78.0709076,36.0104425 78.0709076,33.6142481 L78.0709076,25.4579981 C78.0709076,21.7947866 76.0487365,18.6126238 73.0220031,17.0427753 C74.4886779,15.2494585 75.3717041,12.9493347 75.3717041,10.4431466 C75.3717041,4.73391089 70.7904053,0.0891089109 65.1592255,0.0891089109 C59.5280457,0.0891089109 54.9467469,4.73391089 54.9467469,10.4431466 C54.9467469,12.9493347 55.8297729,15.2501546 57.2964478,17.0427753 C55.9883881,17.7222308 54.8684692,18.7031249 54.0177154,19.8928682 C53.1669618,18.7024288 52.0470429,17.7215347 50.7382965,17.0427753 C52.2049713,15.2501546 53.0879975,12.9493347 53.0879975,10.4431466 C53.0879975,4.73391089 48.5066987,0.0891089109 42.8755187,0.0891089109 C37.2443389,0.0891089109 32.6630401,4.73391089 32.6630401,10.4431466 C32.6630401,12.9493347 33.5467529,15.2501546 35.0134277,17.0434714 C33.7046815,17.7222308 32.5847626,18.7031249 31.7340088,19.8935644 C30.883255,18.7031249 29.7633361,17.7222308 28.4545898,17.0427753 C29.9212646,15.2501546 30.8042909,12.9493347 30.8042909,10.4438427 C30.8042909,4.73391089 26.222992,0.0891089109 20.5918121,0.0891089109 C14.9613189,0.0891089109 10.3800201,4.73391089 10.3800201,10.4438427 C10.3800201,12.9493347 11.2630463,15.2501546 12.7297211,17.0434714 C9.70298771,18.6133199 7.68012996,21.7961788 7.68012996,25.4586942 L7.68012996,33.6142481 C7.68012996,36.0104425 9.60342398,37.960396 11.9668579,37.960396 Z M65.1599121,3.67922335 C68.8382721,3.67922335 71.8313599,6.71310339 71.8313599,10.4431466 C71.8313599,14.1724939 68.8382721,17.2070699 65.1599121,17.2070699 C61.4808654,17.2070699 58.4884644,14.17319 58.4884644,10.4431466 C58.4877778,6.71310339 61.4808654,3.67922335 65.1599121,3.67922335 Z M60.5600738,19.6833229 C61.9436646,20.3941059 63.5057831,20.7971843 65.1592255,20.7971843 C66.8133545,20.7971843 68.3754731,20.3941059 69.758377,19.6833229 C72.5097656,20.169245 74.5305634,22.5730971 74.5305634,25.4579981 L74.5305634,33.6142481 C74.5305634,34.03125 74.196167,34.3702816 73.7848663,34.3702816 L56.5335846,34.3702816 C56.1229706,34.3702816 55.7885742,34.03125 55.7885742,33.6142481 L55.7885742,25.4579981 C55.7878876,22.5737932 57.809372,20.169245 60.5600738,19.6833229 Z M42.8762055,3.67922335 C46.5545654,3.67922335 49.5476532,6.71310339 49.5476532,10.4431466 C49.5476532,14.1724939 46.5545654,17.2070699 42.8762055,17.2070699 C39.1971588,17.2070699 36.2047577,14.17319 36.2047577,10.4431466 C36.2047577,6.71310339 39.1971588,3.67922335 42.8762055,3.67922335 Z M38.2770538,19.6833229 C39.6599579,20.3941059 41.2220763,20.7971843 42.8762055,20.7971843 C44.5303345,20.7971843 46.0917664,20.3941059 47.475357,19.6833229 C50.226059,20.169245 52.2475434,22.5730971 52.2475434,25.4579981 L52.2475434,33.6142481 C52.2475434,34.03125 51.913147,34.3702816 51.5018463,34.3702816 L34.2505645,34.3702816 C33.8392638,34.3702816 33.5048676,34.03125 33.5048676,33.6142481 L33.5048676,25.4579981 C33.5048676,22.5737932 35.526352,20.169245 38.2770538,19.6833229 Z M20.5924989,3.67922335 C24.2708588,3.67922335 27.2639464,6.71310339 27.2639464,10.4431466 C27.2639464,14.1724939 24.2708588,17.2070699 20.5924989,17.2070699 C16.9141388,17.2070699 13.9210509,14.1724939 13.9210509,10.4431466 C13.9210509,6.71310339 16.9141388,3.67922335 20.5924989,3.67922335 Z M11.221161,25.4579981 C11.221161,22.5737932 13.2426454,20.169245 15.9933472,19.6833229 C17.3769379,20.3941059 18.9383697,20.7971843 20.5924989,20.7971843 C22.2466279,20.7971843 23.8080596,20.3941059 25.1916504,19.6833229 C27.943039,20.169245 29.9638368,22.5730971 29.9638368,25.4579981 L29.9638368,33.6142481 C29.9638368,34.03125 29.6294404,34.3702816 29.2181396,34.3702816 L11.9668579,34.3702816 C11.5555572,34.3702816 11.221161,34.03125 11.221161,33.6142481 L11.221161,25.4579981 Z" id="Shape" fill="#000000"></path>
        </g>
    </g>
</svg>