<?xml version="1.0" encoding="UTF-8"?>
<svg width="40px" height="30px" viewBox="0 0 40 30" version="1.1" xmlns="http://www.w3.org/2000/svg" xmlns:xlink="http://www.w3.org/1999/xlink">
    <!-- Generator: Sketch 53 (72520) - https://sketchapp.com -->
    <title>email</title>
    <desc>Created with Sketch.</desc>
    <g id="Page-1" stroke="none" stroke-width="1" fill="none" fill-rule="evenodd">
        <g id="email" fill="#FFFFFF" fill-rule="nonzero">
            <path d="M36.484375,0 L3.515625,0 C2.97445312,0 2.4678125,0.131 2.00945312,0.346923077 L19.921875,17.9837692 L23.9366406,14.1847692 C23.9366406,14.1847692 23.9369531,14.1843846 23.9370312,14.1842308 C23.9371094,14.1840769 23.9374219,14.1839231 23.9374219,14.1839231 L37.9910937,0.347230769 C37.5326562,0.131153846 37.0257031,0 36.484375,0 Z" id="Path"></path>
            <path d="M39.648125,1.97907692 L26.4228906,15.0001538 L39.6476562,28.0214615 C39.8669531,27.5701538 40,27.0713077 40,26.5384615 L40,3.46153846 C40,2.929 39.8672656,2.43023077 39.648125,1.97907692 Z" id="Path"></path>
            <path d="M0.35234375,1.97853846 C0.133046875,2.42984615 0,2.92869231 0,3.46153846 L0,26.5384615 C0,27.071 0.132890625,27.5699231 0.35203125,28.0210769 L13.5772656,15 L0.35234375,1.97853846 Z" id="Path"></path>
            <path d="M24.7657812,16.6317692 L20.7504687,20.4312308 C20.5215625,20.6566154 20.2217187,20.7693077 19.9219531,20.7693077 C19.6221875,20.7693077 19.3222656,20.6566154 19.0934375,20.4312308 L15.234375,16.6316154 L2.00890625,29.6527692 C2.46734375,29.8688462 2.97429687,30 3.515625,30 L36.484375,30 C37.0255469,30 37.5321875,29.869 37.9905469,29.6530769 L24.7657812,16.6317692 Z" id="Path"></path>
        </g>
    </g>
</svg>