<?xml version="1.0" encoding="UTF-8"?>
<svg width="90px" height="90px" viewBox="0 0 30 30" version="1.1" xmlns="http://www.w3.org/2000/svg" xmlns:xlink="http://www.w3.org/1999/xlink">
    <!-- Generator: Sketch 53 (72520) - https://sketchapp.com -->
    <g id="Page-1" stroke="none" stroke-width="1" fill="none" fill-rule="evenodd">
        <g id="high-five" transform="translate(-0.000000, 0.000000)" fill="#000000" fill-rule="nonzero">
            <path d="M14.9992383,0 C14.6756836,0 14.4133008,0.284555085 14.4133008,0.63559322 L14.4133008,4.41692797 C14.4133008,4.7679661 14.6756836,5.05252119 14.9992383,5.05252119 C15.322793,5.05252119 15.5851758,4.7679661 15.5851758,4.41692797 L15.5851758,0.63559322 C15.5851758,0.284555085 15.322793,0 14.9992383,0 Z" id="Path"></path>
            <path d="M11.6791406,5.42675847 L10.2772266,3.90737288 C10.0481836,3.65923729 9.67728516,3.65942797 9.44853516,3.90775424 C9.21984375,4.15608051 9.22001953,4.55847458 9.44888672,4.80661017 L10.8508594,6.32599576 C10.965293,6.45 11.1151758,6.51197034 11.265,6.51197034 C11.4150586,6.51197034 11.5650586,6.44980932 11.6794922,6.32561441 C11.9081836,6.07728814 11.9080078,5.67489407 11.6791406,5.42675847 Z" id="Path"></path>
            <path d="M20.5510547,3.90889831 C20.3221289,3.66069915 19.9511133,3.66095339 19.7223633,3.9092161 L18.2319141,5.52724576 C18.0032227,5.77557203 18.0033984,6.1779661 18.2322656,6.42610169 C18.3466992,6.55016949 18.4966406,6.61213983 18.6464648,6.61213983 C18.7965234,6.61213983 18.9465234,6.54997881 19.060957,6.4257839 L20.5514062,4.80775424 C20.7800977,4.55942797 20.7799219,4.1570339 20.5510547,3.90889831 Z" id="Path"></path>
            <path d="M26.1621094,16.779661 L25.6892578,16.779661 C26.0751563,16.2340042 26.3052539,15.5522034 26.3052539,14.8129449 L26.3052539,13.9159322 C26.3052539,12.1304873 24.9662109,10.6779661 23.3203125,10.6779661 C21.6744141,10.6779661 20.3353711,12.1304873 20.3353711,13.9158686 L20.3353711,14.613178 L15.9273047,9.83148305 C15.6826758,9.56618644 15.3229102,9.48101695 15.0000586,9.6075 C14.6773242,9.48101695 14.3174414,9.56618644 14.0727539,9.83154661 L9.66474609,14.613178 L9.66474609,13.9158686 C9.66462891,12.1304873 8.32558594,10.6779661 6.6796875,10.6779661 C5.03378906,10.6779661 3.69474609,12.1304873 3.69474609,13.9158686 L3.69474609,14.8128814 C3.69474609,15.5522034 3.92484375,16.2339407 4.31074219,16.7795975 L3.83789062,16.7795975 C1.72166016,16.779661 0,18.6472246 0,20.9427966 L0,29.3644068 C0,29.7154449 0.262382813,30 0.5859375,30 L3.06152344,30 C3.12011719,30 3.17660156,29.9904025 3.22998047,29.9730508 C3.28335937,29.9904025 3.33984375,30 3.3984375,30 L9.9609375,30 C10.2844922,30 10.546875,29.7154449 10.546875,29.3644068 L10.546875,27.2033898 C10.546875,26.8523517 10.2844922,26.5677966 9.9609375,26.5677966 C9.63738281,26.5677966 9.375,26.8523517 9.375,27.2033898 L9.375,28.7288136 L3.984375,28.7288136 L3.984375,21.4864195 C3.984375,21.1353814 3.72199219,20.8508263 3.3984375,20.8508263 C3.07488281,20.8508263 2.8125,21.1353814 2.8125,21.4864195 L2.8125,28.7288136 L1.171875,28.7288136 L1.171875,20.9427966 C1.171875,19.3481568 2.36783203,18.0508475 3.83789062,18.0508475 L7.91015625,18.0508475 C8.07140625,18.0508475 8.21742187,17.9801059 8.32335937,17.8658263 C8.32376953,17.8653814 8.32412109,17.8651271 8.32453125,17.8647458 L14.4106055,11.262839 C14.3707031,12.582839 13.9921875,13.8542161 13.3098047,14.9536017 L9.47496094,21.1314407 C9.40986328,21.2363771 9.37505859,21.36 9.37505859,21.4864195 L9.37505859,22.1822034 C9.37505859,22.5332415 9.63744141,22.8177966 9.96099609,22.8177966 C10.2845508,22.8177966 10.5469336,22.5332415 10.5469336,22.1822034 L10.5469336,21.6804025 L14.281875,15.6634958 C14.5672266,15.2037712 14.8065234,14.7180508 15.0000586,14.2138347 C15.1935937,14.7180508 15.432832,15.2037712 15.7182422,15.6634958 L19.453125,21.6804025 L19.453125,29.3644068 C19.453125,29.7154449 19.7155078,30 20.0390625,30 L26.6015625,30 C26.6601562,30 26.7166406,29.9904025 26.7700195,29.9730508 C26.8233984,29.9904025 26.8798828,30 26.9384766,30 L29.4140625,30 C29.7376172,30 30,29.7154449 30,29.3644068 L30,20.9427966 C30,18.6472246 28.2783398,16.779661 26.1621094,16.779661 Z M8.49275391,14.8128814 C8.49275391,15.8973941 7.67947266,16.779661 6.6796875,16.779661 C5.67990234,16.779661 4.86662109,15.8973941 4.86662109,14.8129449 L4.86662109,13.9159322 C4.86662109,12.8314195 5.67996094,11.9491525 6.6796875,11.9491525 C7.67941406,11.9491525 8.49275391,12.8314195 8.49275391,13.9158686 L8.49275391,14.8128814 Z M21.5072461,13.9158686 C21.5072461,12.8314195 22.3205859,11.9491525 23.3203125,11.9491525 C24.3200391,11.9491525 25.1333789,12.8314195 25.1333789,13.9158686 L25.1333789,14.8128814 C25.1333789,15.8973941 24.3200977,16.779661 23.3203125,16.779661 C22.3205273,16.779661 21.5072461,15.8973941 21.5072461,14.8129449 L21.5072461,13.9158686 Z M28.828125,28.7288136 L28.828125,28.7288136 L27.1875,28.7288136 L27.1875,24.0254237 C27.1875,23.6743856 26.9251172,23.3898305 26.6015625,23.3898305 C26.2780078,23.3898305 26.015625,23.6743856 26.015625,24.0254237 L26.015625,28.7288136 L20.625,28.7288136 L20.625,21.4864195 C20.625,21.3599364 20.5901953,21.2363136 20.5250977,21.1314407 L16.6902539,14.9536653 C16.0078711,13.8542797 15.6293555,12.5829025 15.5894531,11.2629025 L21.6755273,17.8647458 C21.6832617,17.8731356 21.6905273,17.8801907 21.6975586,17.8864831 C21.8014453,17.9883686 21.9387891,18.0509746 22.0898438,18.0509746 L26.1621094,18.0509746 C27.632168,18.0509746 28.828125,19.3482839 28.828125,20.9429237 L28.828125,28.7288136 L28.828125,28.7288136 Z" id="Shape"></path>
            <path d="M27.0157617,21.0368644 C26.9068359,20.9186441 26.7556641,20.8506356 26.6015625,20.8506356 C26.4474609,20.8506356 26.2962891,20.9186441 26.1873047,21.0368644 C26.0783203,21.1550847 26.015625,21.3190678 26.015625,21.4862288 C26.015625,21.6533898 26.0782617,21.8173729 26.1873047,21.9355932 C26.2962891,22.0538136 26.4474609,22.121822 26.6015625,22.121822 C26.7556641,22.121822 26.9068359,22.0538136 27.0157617,21.9355932 C27.1247461,21.8173729 27.1875,21.6533898 27.1875,21.4862288 C27.1875,21.3190678 27.1248047,21.1557203 27.0157617,21.0368644 Z" id="Path"></path>
            <path d="M10.3751367,24.4023305 C10.2662109,24.2841102 10.1150391,24.2161017 9.9609375,24.2161017 C9.80683594,24.2161017 9.65566406,24.2841102 9.54667969,24.4023305 C9.43769531,24.5205508 9.375,24.6845339 9.375,24.8516949 C9.375,25.0188559 9.43763672,25.182839 9.54667969,25.3010593 C9.65572266,25.4192797 9.80683594,25.4872881 9.9609375,25.4872881 C10.1150391,25.4872881 10.2662109,25.4192797 10.3751367,25.3010593 C10.4841211,25.182839 10.546875,25.0188559 10.546875,24.8516949 C10.546875,24.6845339 10.4841797,24.5205508 10.3751367,24.4023305 Z" id="Path"></path>
        </g>
    </g>
</svg>