<?xml version="1.0" encoding="UTF-8"?>
<svg width="27px" height="21px" viewBox="0 0 27 21" version="1.1" xmlns="http://www.w3.org/2000/svg" xmlns:xlink="http://www.w3.org/1999/xlink">
    <!-- Generator: Sketch 53 (72520) - https://sketchapp.com -->
    <title>mail</title>
    <desc>Created with Sketch.</desc>
    <g id="Page-1" stroke="none" stroke-width="1" fill="none" fill-rule="evenodd">
        <g id="mail" transform="translate(0.000000, 0.000000)" fill="#333333" fill-rule="nonzero">
            <path d="M23.625,0 L3.375,0 C1.51115625,0 -3.55271368e-15,1.792 -3.55271368e-15,4 L-3.55271368e-15,17 C-3.55271368e-15,19.209 1.51115625,21 3.375,21 L23.625,21 C25.4888438,21 27,19.209 27,17 L27,4 C27,1.792 25.4888438,0 23.625,0 Z M1.6875,5.25 L7.59290625,10.5 L1.6875,15.75 L1.6875,5.25 Z M25.3125,17 C25.3125,18.104 24.5548125,19 23.625,19 L3.375,19 C2.44434375,19 1.6875,18.104 1.6875,17 L8.29575,11.125 L11.98125,14.402 C12.4309688,14.8 12.9650625,15.002 13.5,15.002 C14.0340938,15.002 14.5681875,14.801 15.0179063,14.402 L18.70425,11.125 L25.3125,17 L25.3125,17 Z M25.3125,15.75 L19.40625,10.5 L25.3125,5.25 L25.3125,15.75 Z M14.5116563,13.602 C14.2171875,13.864 13.867875,14.002 13.5,14.002 C13.132125,14.002 12.7819688,13.863 12.4875,13.602 L8.99859375,10.5 L8.29575,9.875 L1.6875,4.001 L1.6875,4 C1.6875,2.897 2.44434375,2 3.375,2 L23.625,2 C24.5548125,2 25.3125,2.897 25.3125,4 L14.5116563,13.602 Z"></path>
        </g>
    </g>
</svg>