<svg width="32" height="32" xmlns="http://www.w3.org/2000/svg">

 <g>
  <title>background</title>
  <rect fill="none" id="canvas_background" height="402" width="582" y="-1" x="-1"/>
 </g>
 <g>
  <title>Layer 1</title>
  <path id="svg_1" fill="#435b67" d="m25.023,2.772c0,-0.624 -0.506,-1.128 -1.129,-1.128l-14.875,0c-0.623,0 -1.128,0.504 -1.128,1.128l0,26.458c0,0.622 0.505,1.127 1.128,1.127l14.875,0c0.623,0 1.129,-0.505 1.129,-1.127l0,-26.458zm-8.574,26.396c-0.733,0 -1.328,-0.594 -1.328,-1.327c0,-0.731 0.595,-1.325 1.328,-1.325c0.732,0 1.326,0.594 1.326,1.325c0,0.733 -0.593,1.327 -1.326,1.327zm5.835,-5.649l-11.655,0l0,-18.174l11.655,0l0,18.174z"/>
 </g>
</svg>