<?xml version="1.0" encoding="UTF-8"?>
<svg width="30px" height="30px" viewBox="0 0 30 30" version="1.1" xmlns="http://www.w3.org/2000/svg" xmlns:xlink="http://www.w3.org/1999/xlink">
    <!-- Generator: Sketch 53 (72520) - https://sketchapp.com -->
    <title>call</title>
    <desc>Created with Sketch.</desc>
    <g id="Page-1" stroke="none" stroke-width="1" fill="none" fill-rule="evenodd">
        <g id="call" fill-rule="nonzero">
            <circle id="Oval" fill="#FFFFFF" cx="15" cy="15" r="15"></circle>
            <path d="M22.3888889,18.2908889 C20.7587778,18.2908889 19.2042222,17.9357778 17.7705556,17.235 C17.5457778,17.1273333 17.2851111,17.1103333 17.0471111,17.1915556 C16.8091111,17.2746667 16.6145556,17.4484444 16.505,17.6732222 L15.825,19.0804444 C13.785,17.9093333 12.0925556,16.215 10.9195556,14.175 L12.3286667,13.495 C12.5553333,13.3854444 12.7272222,13.1908889 12.8103333,12.9528889 C12.8915556,12.7148889 12.8764444,12.4542222 12.7668889,12.2294444 C12.0642222,10.7976667 11.7091111,9.24311111 11.7091111,7.61111111 C11.7091111,7.08977778 11.286,6.66666667 10.7646667,6.66666667 L7.27777778,6.66666667 C6.75644444,6.66666667 6.33333333,7.08977778 6.33333333,7.61111111 C6.33333333,16.4643333 13.5356667,23.6666667 22.3888889,23.6666667 C22.9102222,23.6666667 23.3333333,23.2435556 23.3333333,22.7222222 L23.3333333,19.2353333 C23.3333333,18.714 22.9102222,18.2908889 22.3888889,18.2908889 Z" id="Path" fill="#000000"></path>
        </g>
    </g>
</svg>