<?xml version="1.0" encoding="UTF-8"?>
<svg width="90px" height="90px" viewBox="0 0 90 90" version="1.1" xmlns="http://www.w3.org/2000/svg" xmlns:xlink="http://www.w3.org/1999/xlink">
    <!-- Generator: Sketch 53 (72520) - https://sketchapp.com -->
    <title>question</title>
    <desc>Created with Sketch.</desc>
    <defs>
        <linearGradient x1="3.99302613%" y1="26.4967947%" x2="97.1205276%" y2="98.1488181%" id="linearGradient-1">
            <stop stop-color="#F15A24" offset="0%"></stop>
            <stop stop-color="#F7931E" offset="100%"></stop>
        </linearGradient>
    </defs>
    <g id="Page-1" stroke="none" stroke-width="1" fill="none" fill-rule="evenodd">
        <g id="question" fill="url(#linearGradient-1)" fill-rule="nonzero">
            <path d="M89.6464337,81.501921 L83.4678986,63.5207296 C86.4396564,57.5137569 88.0113165,50.8178976 88.0218634,44.0807296 C88.0397931,32.4788155 83.5508673,21.5086593 75.3816095,13.1912179 C67.2109454,4.87237023 56.3232306,0.189909292 44.7243048,0.00586632305 C38.6473712,-0.0916922707 32.7506134,1.02803429 27.1888947,3.33024132 C21.8245782,5.55071007 17.0139728,8.76733117 12.8908478,12.8906319 C8.767547,17.0137569 5.5509259,21.8243624 3.33045715,27.1886788 C1.02789856,32.7503976 -0.0905975334,38.6501437 0.00573059156,44.724089 C0.189421998,56.3230148 4.87205872,67.2107296 13.1907306,75.3813937 C21.4918243,83.5346554 32.4338556,88.0221749 44.0108087,88.0219991 C44.0333087,88.0219991 44.0573907,88.0219991 44.0800665,88.0219991 C50.8174103,88.011628 57.5130939,86.4399679 63.5204181,83.4680343 L81.5016095,89.6465694 C82.1931329,89.8842257 82.9018829,90.0000655 83.6028986,90.0000655 C85.2684259,90.0000655 86.8882501,89.3456319 88.1167853,88.1170968 C89.8626447,86.371589 90.4486993,83.8368234 89.6464337,81.501921 Z M43.5776837,69.1002023 C42.0819611,69.1002023 40.9743634,67.8776437 40.9096759,66.4321944 C40.8451642,64.9913155 42.1821564,63.7641866 43.5776837,63.7641866 C45.0734064,63.7641866 46.181004,64.9867452 46.2456915,66.4321944 C46.310379,67.8728976 44.9732111,69.1002023 43.5776837,69.1002023 Z M46.2456915,48.7215304 L46.2456915,57.2045577 C46.2456915,58.6779562 45.0510822,59.8725655 43.5776837,59.8725655 C42.1042853,59.8725655 40.9096759,58.6779562 40.9096759,57.2045577 L40.9096759,46.3228194 C40.9096759,44.849421 42.1042853,43.6548116 43.5776837,43.6548116 C47.9546368,43.6548116 51.5157892,40.0936593 51.5157892,35.7167062 C51.5157892,31.339753 47.9546368,27.7786007 43.5776837,27.7786007 C39.2007306,27.7786007 35.6395782,31.339753 35.6395782,35.7167062 C35.6395782,37.1901046 34.4449689,38.384714 32.9715704,38.384714 C31.498172,38.384714 30.3035626,37.1901046 30.3035626,35.7167062 C30.3035626,28.3975265 36.2583282,22.4425851 43.5776837,22.4425851 C50.8968634,22.4425851 56.8518048,28.3973507 56.8518048,35.7167062 C56.8518048,42.1225265 52.2908087,47.4831515 46.2456915,48.7215304 Z" id="Shape"></path>
        </g>
    </g>
</svg>