<?xml version="1.0" encoding="UTF-8"?>
<svg width="60px" height="60px" viewBox="0 0 60 60" version="1.1" xmlns="http://www.w3.org/2000/svg" xmlns:xlink="http://www.w3.org/1999/xlink">
    <!-- Generator: Sketch 53 (72520) - https://sketchapp.com -->
    <title>490c67a0ab7cb8630fbbe8dfaf440982</title>
    <desc>Created with Sketch.</desc>
    <g id="Page-1" stroke="none" stroke-width="1" fill="none" fill-rule="evenodd">
        <g id="490c67a0ab7cb8630fbbe8dfaf440982" fill="#FFFFFF" fill-rule="nonzero">
            <path d="M59.6265306,25.1265306 C60,24.3795918 60,23.2530612 59.6265306,22.5 L57,19.8734694 C56.6265306,19.5 56.2530612,19.5 55.5,19.5 C55.1265306,19.5 54.3734694,19.5 54,19.8734694 L33.7530612,39.7469388 L33.7530612,41.2469388 L33.7530612,45 L39.7530612,45 L59.6265306,25.1265306 Z" id="Path"></path>
            <polygon id="Path" points="11.2530612 11.2469388 48.7530612 11.2469388 48.7530612 15 11.2530612 15"></polygon>
            <polygon id="Path" points="11.2530612 22.5 46.1265306 22.5 48.7530612 19.8734694 48.7530612 18.7469388 11.2530612 18.7469388"></polygon>
            <polygon id="Path" points="11.2530612 41.2469388 30 41.2469388 30 45 11.2530612 45"></polygon>
            <polygon id="Path" points="11.2530612 30 38.6265306 30 42.3734694 26.2469388 11.2530612 26.2469388"></polygon>
            <path d="M56.2469388,33.7469388 L56.2469388,48.7469388 C56.2469388,52.8734694 52.8734694,56.2469388 48.7469388,56.2469388 L11.2530612,56.2469388 C7.12653061,56.2469388 3.75306122,52.8734694 3.75306122,48.7469388 L3.75306122,11.2469388 C3.75306122,7.12040816 7.12653061,3.74693878 11.2530612,3.74693878 L48.7530612,3.74693878 C52.8795918,3.74693878 56.2530612,7.12040816 56.2530612,11.2469388 L56.2530612,15.7469388 C57.3795918,15.7469388 58.5061224,16.4938776 59.6265306,17.2469388 L60,17.6204082 L60,11.2530612 C60,4.87346939 55.1265306,0 48.7530612,0 L11.2530612,0 C4.87346939,0 0,4.87346939 0,11.2530612 L0,48.7530612 C0,55.1265306 4.87346939,60 11.2530612,60 L48.7530612,60 C55.1265306,60 60,55.1265306 60,48.7530612 L60,30 L56.2469388,33.7469388 Z" id="Path"></path>
            <polygon id="Path" points="11.2530612 37.5 31.1265306 37.5 31.5 37.1265306 34.8734694 33.7530612 11.2530612 33.7530612"></polygon>
        </g>
    </g>
</svg>